<svg id="Capa_1" enable-background="new 0 0 512 512" height="512" viewBox="0 0 512 512" width="512" xmlns="http://www.w3.org/2000/svg" xmlns:xlink="http://www.w3.org/1999/xlink"><linearGradient id="SVGID_1_" gradientUnits="userSpaceOnUse" x1="74.981" x2="437.019" y1="437.019" y2="74.981"><stop offset="0" stop-color="#ff726d"/><stop offset="1" stop-color="#ffde00"/></linearGradient><radialGradient id="SVGID_2_" cx="257.014" cy="280.338" gradientUnits="userSpaceOnUse" r="256"><stop offset="0" stop-color="#ff726d"/><stop offset=".2243" stop-color="#ff7966" stop-opacity=".765"/><stop offset=".5582" stop-color="#ff8e51" stop-opacity=".415"/><stop offset=".9537" stop-color="#ffae31" stop-opacity="0"/></radialGradient><linearGradient id="lg1"><stop offset="0" stop-color="#fca200"/><stop offset=".3235" stop-color="#fdc256"/><stop offset=".7925" stop-color="#feedcf"/><stop offset="1" stop-color="#fff"/></linearGradient><linearGradient id="SVGID_3_" gradientUnits="userSpaceOnUse" x1="-42.784" x2="542.573" xlink:href="#lg1" y1="554.784" y2="-30.573"/><linearGradient id="SVGID_4_" gradientUnits="userSpaceOnUse" x1="-73.097" x2="459.602" xlink:href="#lg1" y1="696.245" y2="163.547"/><radialGradient id="SVGID_5_" cx="252.882" cy="234.172" gradientUnits="userSpaceOnUse" r="222.976"><stop offset=".0744" stop-color="#fcb000"/><stop offset=".0796" stop-color="#fcb101" stop-opacity=".994"/><stop offset=".4169" stop-color="#fcd255" stop-opacity=".63"/><stop offset=".693" stop-color="#fdea93" stop-opacity=".332"/><stop offset=".8944" stop-color="#fdf9b9" stop-opacity=".114"/><stop offset="1" stop-color="#fdffc7" stop-opacity="0"/></radialGradient><linearGradient id="SVGID_6_" gradientUnits="userSpaceOnUse" x1="256" x2="256" y1="395.159" y2="133.355"><stop offset="0" stop-color="#fcb000" stop-opacity="0"/><stop offset="1" stop-color="#fca200" stop-opacity=".7"/></linearGradient><linearGradient id="SVGID_7_" gradientUnits="userSpaceOnUse" x1="-157.995" x2="368.359" xlink:href="#lg1" y1="558.846" y2="32.493"/><g><circle cx="256" cy="256" fill="url(#SVGID_1_)" r="256"/><circle cx="256" cy="256" fill="url(#SVGID_2_)" r="256"/><path d="m445.525 141c-61.847 18.792-125.38 39.579-189.525 60.805-64.144-21.227-127.678-42.013-189.525-60.805-4.917 76.667-4.917 153.333 0 230 62.167-13.792 125.549-29.328 189.525-45.43 63.976 16.102 127.357 31.638 189.525 45.43 4.917-76.667 4.917-153.333 0-230z" fill="url(#SVGID_3_)"/><path d="m435.034 347.495c-38.581-29.601-78.86-60.4-119.379-91.495-39.77 0-79.54 0-119.31 0-40.518 31.094-80.798 61.893-119.379 91.495-7.208 5.532-11.094 14.197-10.491 23.505.539 8.273 7.755 15.228 16.025 15.497 115.667 3.671 231.333 3.671 347 0 8.27-.268 15.486-7.223 16.025-15.497.602-9.308-3.284-17.973-10.491-23.505z" fill="url(#SVGID_4_)"/><path d="m429.5 386.497c-115.667 3.671-231.333 3.671-347 0-8.274-.268-15.486-7.219-16.025-15.497-4.917-76.667-4.917-153.333 0-230 .539-8.278 7.75-15.228 16.025-15.497 115.667-3.671 231.333-3.671 347 0 8.274.269 15.486 7.219 16.025 15.497 4.917 76.667 4.917 153.333 0 230-.539 8.278-7.751 15.228-16.025 15.497z" fill="url(#SVGID_5_)"/><path d="m66.475 141c-.831 12.819 2.923 24.804 10.084 32.502 45.307 48.703 94.227 99.511 142.184 150.372 22.146 23.499 52.368 23.499 74.514 0 47.956-50.861 96.876-101.669 142.184-150.372 7.161-7.698 10.915-19.683 10.084-32.502-126.35-3.833-252.7-3.833-379.05 0z" fill="url(#SVGID_6_)"/><path d="m445.525 141c.602 9.308-3.284 17.973-10.491 23.505-45.615 34.998-93.603 71.67-141.554 108.525-22.129 17.024-52.829 17.024-74.959 0-47.951-36.855-95.94-73.527-141.554-108.525-7.208-5.532-11.094-14.197-10.491-23.505.538-8.273 7.755-15.228 16.025-15.497 115.667-3.671 231.333-3.671 347 0 8.269.269 15.485 7.224 16.024 15.497z" fill="url(#SVGID_7_)"/></g></svg>