<svg id="Capa_1" enable-background="new 0 0 512 512" height="512" viewBox="0 0 512 512" width="512" xmlns="http://www.w3.org/2000/svg" xmlns:xlink="http://www.w3.org/1999/xlink"><linearGradient id="SVGID_1_" gradientUnits="userSpaceOnUse" x1="74.98" x2="437.018" y1="437.019" y2="74.98"><stop offset="0" stop-color="#00aa45"/><stop offset="1" stop-color="#d3ff33"/></linearGradient><radialGradient id="SVGID_2_" cx="256" cy="256" gradientUnits="userSpaceOnUse" r="292.098"><stop offset="0" stop-color="#00aa45"/><stop offset=".098" stop-color="#1eb54d" stop-opacity=".902"/><stop offset=".3453" stop-color="#64cf5e" stop-opacity=".655"/><stop offset=".568" stop-color="#9ce36c" stop-opacity=".432"/><stop offset=".7582" stop-color="#c4f276" stop-opacity=".242"/><stop offset=".9084" stop-color="#ddfb7d" stop-opacity=".092"/><stop offset="1" stop-color="#e6fe7f" stop-opacity="0"/></radialGradient><linearGradient id="lg1"><stop offset="0" stop-color="#00aa45"/><stop offset=".3608" stop-color="#57cd3e"/><stop offset=".6666" stop-color="#9ae838"/><stop offset=".887" stop-color="#c3f934"/><stop offset="1" stop-color="#d3ff33"/></linearGradient><linearGradient id="SVGID_3_" gradientTransform="matrix(0 1 -1 0 709.5 -7.5)" gradientUnits="userSpaceOnUse" x1="361.255" x2="-193.005" xlink:href="#lg1" y1="529.777" y2="-24.482"/><linearGradient id="SVGID_4_" gradientTransform="matrix(0 1 -1 0 709.5 -7.5)" gradientUnits="userSpaceOnUse" x1="353.994" x2="-91.464" xlink:href="#lg1" y1="607.159" y2="161.7"/><linearGradient id="SVGID_5_" gradientTransform="matrix(0 1 -1 0 709.5 -7.5)" gradientUnits="userSpaceOnUse" x1="240.892" x2="240.892" y1="605.236" y2="290.034"><stop offset="0" stop-color="#95e12e" stop-opacity="0"/><stop offset=".2353" stop-color="#76ce33" stop-opacity=".165"/><stop offset=".7462" stop-color="#299e40" stop-opacity=".522"/><stop offset="1" stop-color="#008547" stop-opacity=".7"/></linearGradient><radialGradient id="SVGID_6_" cx="236.973" cy="495.002" gradientTransform="matrix(0 1 -.784 0 602.682 -7.5)" gradientUnits="userSpaceOnUse" r="273.34"><stop offset=".0056" stop-color="#008547"/><stop offset=".4215" stop-color="#28a440" stop-opacity=".582"/><stop offset="1" stop-color="#5ccd38" stop-opacity="0"/></radialGradient><linearGradient id="lg2"><stop offset="0" stop-color="#95e12e"/><stop offset=".3557" stop-color="#c0ed83"/><stop offset=".664" stop-color="#e2f7c6"/><stop offset=".8861" stop-color="#f7fdef"/><stop offset="1" stop-color="#fff"/></linearGradient><linearGradient id="SVGID_7_" gradientTransform="matrix(0 1 -1.001 0 710.185 -7.5)" gradientUnits="userSpaceOnUse" x1="893.408" x2="93.172" xlink:href="#lg2" y1="1104.752" y2="305.116"/><linearGradient id="SVGID_8_" gradientUnits="userSpaceOnUse" x1="152.101" x2="528.679" y1="233.019" y2="233.019"><stop offset="0" stop-color="#e6fe7f" stop-opacity="0"/><stop offset=".4102" stop-color="#c7f360" stop-opacity=".287"/><stop offset="1" stop-color="#95e12e" stop-opacity=".7"/></linearGradient><linearGradient id="SVGID_9_" gradientTransform="matrix(0 1 -1.001 0 710.185 -7.5)" gradientUnits="userSpaceOnUse" x1="512.878" x2="81.694" xlink:href="#lg2" y1="702.298" y2="271.437"/><linearGradient id="SVGID_10_" gradientTransform="matrix(0 1 -1.001 0 710.185 -7.5)" gradientUnits="userSpaceOnUse" x1="708.698" x2="-86.123" xlink:href="#lg2" y1="920.741" y2="126.515"/><linearGradient id="SVGID_11_" gradientTransform="matrix(0 1 -1.001 0 710.185 -7.5)" gradientUnits="userSpaceOnUse" x1="781.302" x2="-14.664" xlink:href="#lg2" y1="969.933" y2="174.563"/><linearGradient id="SVGID_12_" gradientUnits="userSpaceOnUse" x1="60.656" x2="437.206" y1="232.954" y2="232.954"><stop offset="0" stop-color="#b8ef5c" stop-opacity="0"/><stop offset=".6855" stop-color="#a1e63e" stop-opacity=".48"/><stop offset="1" stop-color="#95e12e" stop-opacity=".7"/></linearGradient><linearGradient id="SVGID_13_" gradientTransform="matrix(0 1 -1 0 709.5 -7.5)" gradientUnits="userSpaceOnUse" x1="489.402" x2="-52.001" xlink:href="#lg1" y1="571.56" y2="30.157"/><g><circle cx="256" cy="256" fill="url(#SVGID_1_)" r="256"/><circle cx="256" cy="256" fill="url(#SVGID_2_)" r="256"/><path d="m390.125 389.04c2.883-103.754 2.393-207.509-1.469-311.263-58.438-3.272-116.875-4.382-175.312-3.33-1.242 105.693-1.399 211.386-.472 317.079 59.083.785 118.168-.043 177.253-2.486z" fill="url(#SVGID_3_)"/><path d="m232.611 381.865c25.201-33.128 50.936-66.664 76.638-99.956.067-32.6.008-65.199-.177-97.799-25.738-33.431-51.333-67.006-76.221-100.072-4.653-6.175-11.847-9.732-19.508-9.592-6.808.124-12.426 5.901-12.528 12.853-1.371 97.146-1.558 194.292-.561 291.439.075 6.952 5.73 12.695 12.616 12.788 7.745.105 15.033-3.475 19.741-9.661z" fill="url(#SVGID_4_)"/><path d="m388.656 77.777c-10.548-.596-20.384 2.514-26.67 8.386-39.767 37.162-81.157 76.498-122.881 115.961-19.266 18.219-19.325 43.47-.035 61.643 41.766 39.391 83.533 78.922 124.013 116.544 6.398 5.945 16.375 9.175 27.042 8.73 2.882-103.755 2.393-207.51-1.469-311.264z" fill="url(#SVGID_5_)"/><path d="m200.255 378.738c-.998-97.146-.811-194.292.561-291.439.102-6.955 5.716-12.729 12.528-12.853 58.437-1.052 116.875.058 175.312 3.33 6.812.386 12.568 6.252 12.83 13.058 3.615 95.11 4.107 190.221 1.477 285.332-.19 6.806-5.949 12.584-12.839 12.874-59.084 2.443-118.169 3.271-177.253 2.486-6.889-.093-12.542-5.833-12.616-12.788z" fill="url(#SVGID_6_)"/><path d="m110.514 421.166c-3.615-95.111-4.107-190.221-1.477-285.332.191-6.806 5.951-12.584 12.839-12.874 59.085-2.443 118.169-3.271 177.254-2.486 6.89.093 12.542 5.833 12.616 12.788.998 97.146.811 194.292-.561 291.439-.103 6.955-5.714 12.728-12.528 12.853-58.438 1.052-116.875-.058-175.313-3.33-6.813-.387-12.567-6.252-12.83-13.058z" fill="url(#SVGID_7_)"/><path d="m311.746 133.391c-23.927 22.594-48.226 45.642-72.641 68.733-19.269 18.219-19.326 43.469-.035 61.643 24.439 23.049 48.878 46.146 73.059 68.88.426-66.419.298-132.838-.383-199.256z" fill="url(#SVGID_8_)"/><path d="m138.418 198.789c-.704 68.693-.14 137.386 1.692 206.079 47.028 1.882 94.055 2.619 141.083 2.21-46.629-69.304-95.764-140.319-142.775-208.289z" fill="url(#SVGID_9_)"/><path d="m139.084 152.55c-.285 15.413-.508 30.826-.666 46.239 6.137 88.193 62.865 169.254 142.775 208.289.488-85.355.562-170.709.223-256.064-47.444-.285-94.888.227-142.332 1.536z" fill="url(#SVGID_10_)"/><path d="m239.105 202.124c-19.269 18.219-19.326 43.469-.035 61.643 14.188 13.381 28.374 26.777 42.512 40.11.085-47.281.044-94.562-.124-141.843-14.046 13.294-28.18 26.685-42.353 40.09z" fill="url(#SVGID_11_)"/><path d="m239.105 202.124c-19.269 18.219-19.326 43.469-.035 61.643 14.188 13.381 28.374 26.777 42.512 40.11.085-47.281.044-94.562-.124-141.843-14.046 13.294-28.18 26.685-42.353 40.09z" fill="url(#SVGID_12_)"/><path d="m390.125 389.04c-7.746.323-14.963-2.989-19.564-8.966-29.121-37.829-59.304-76.96-89.615-116.311-13.995-18.152-13.984-43.496-.052-61.62 30.18-39.274 59.99-78.187 88.493-115.659 4.505-5.92 11.611-9.141 19.27-8.708 6.808.386 12.566 6.255 12.83 13.058 3.615 95.11 4.107 190.221 1.477 285.332-.193 6.803-5.953 12.584-12.839 12.874z" fill="url(#SVGID_13_)"/></g></svg>